<svg xmlns="http://www.w3.org/2000/svg" version="1.1" xmlns:xlink="http://www.w3.org/1999/xlink" xmlns:svgjs="http://svgjs.dev/svgjs" width="1500" height="1500" viewBox="0 0 1500 1500"><rect width="1500" height="1500" fill="#ffffff"></rect><g transform="matrix(0.6666666666666666,0,0,0.6666666666666666,249.3939393939395,663.7087671447111)"><svg viewBox="0 0 396 68" data-background-color="#ffffff" preserveAspectRatio="xMidYMid meet" height="257" width="1500" xmlns="http://www.w3.org/2000/svg" xmlns:xlink="http://www.w3.org/1999/xlink"><g id="tight-bounds" transform="matrix(1,0,0,1,0.23999999999995225,0.24788230054264204)"><svg viewBox="0 0 395.52 67.50423539891469" height="67.50423539891469" width="395.52"><g><svg viewBox="0 0 530.5133343696158 90.54383344849737" height="67.50423539891469" width="395.52"><g><rect width="5.007200328163874" height="90.54383344849737" x="408.6278542622091" y="0" fill="#000000" opacity="1" stroke-width="0" stroke="transparent" fill-opacity="1" class="rect-qz-0" data-fill-palette-color="primary" rx="1%" id="qz-0" data-palette-color="#ea9937"></rect></g><g transform="matrix(1,0,0,1,0,0.22523341653854345)"><svg viewBox="0 0 395.52 90.09336661542028" height="90.09336661542028" width="395.52"><g id="textblocktransform"><svg viewBox="0 0 395.52 90.09336661542028" height="90.09336661542028" width="395.52" id="textblock"><g><svg viewBox="0 0 395.52 55.523874778499696" height="55.523874778499696" width="395.52"><g transform="matrix(1,0,0,1,0,0)"><svg width="395.52" viewBox="1.2 -35 260.18 35.65" height="55.523874778499696" data-palette-color="#ea9937"><g class="wordmark-text-0" data-fill-palette-color="primary" id="text-0"><path d="M12.3-34.5L16.7-34.5 16.7 0 12.3 0 12.3-34.5ZM1.2-34.5L27.85-34.5 27.85-30.6 1.2-30.6 1.2-34.5ZM42.95-24.95L42.95-24.95Q48.45-24.95 50.92-22.95 53.4-20.95 53.4-17L53.4-17Q53.45-13.75 52.05-11.93 50.65-10.1 47.6-10.1L47.6-10.1 33.4-10.1 33.4-13.4 46.5-13.4Q48.15-13.4 48.65-14.53 49.15-15.65 49.15-17L49.15-17Q49.1-19.35 47.75-20.35 46.4-21.35 43.15-21.35L43.15-21.35Q40.5-21.35 38.97-20.58 37.45-19.8 36.82-17.88 36.2-15.95 36.2-12.5L36.2-12.5Q36.2-8.6 36.97-6.55 37.75-4.5 39.45-3.75 41.15-3 43.95-3L43.95-3Q45.9-3 48.22-3.18 50.55-3.35 52.4-3.6L52.4-3.6 52.85-0.75Q51.7-0.3 50.02 0 48.35 0.3 46.57 0.45 44.8 0.6 43.4 0.6L43.4 0.6Q39.2 0.6 36.65-0.68 34.1-1.95 32.92-4.78 31.75-7.6 31.75-12.25L31.75-12.25Q31.75-17.05 32.92-19.83 34.1-22.6 36.57-23.78 39.05-24.95 42.95-24.95ZM74.59-24.95L74.59-24.95Q81.2-24.95 81.2-18.25L81.2-18.25 81.2 0 76.95 0 76.95-17.05Q76.95-19.5 76.15-20.43 75.34-21.35 73.45-21.35L73.45-21.35Q71.2-21.35 68.95-20.25 66.7-19.15 63.6-17.25L63.6-17.25 63.4-20.3Q66.25-22.5 69.05-23.73 71.84-24.95 74.59-24.95ZM59.8-24.35L63.4-24.35 63.75-19.7 64.05-18.95 64.05 0 59.8 0 59.8-24.35ZM96.94-24.95L96.94-24.95Q99.34-24.95 101.69-24.33 104.04-23.7 106.19-22.4L106.19-22.4 105.94-19.75Q103.59-20.45 101.79-20.85 99.99-21.25 97.94-21.25L97.94-21.25Q95.84-21.25 94.57-20.53 93.29-19.8 92.69-17.85 92.09-15.9 92.09-12.3L92.09-12.3Q92.09-8.7 92.67-6.7 93.24-4.7 94.49-3.9 95.74-3.1 97.69-3.1L97.69-3.1Q99.14-3.1 100.32-3.48 101.49-3.85 102.82-4.7 104.14-5.55 105.94-6.85L105.94-6.85 106.34-3.85Q104.34-2 101.79-0.7 99.24 0.6 96.29 0.6L96.29 0.6Q91.69 0.6 89.72-2.65 87.74-5.9 87.74-12.25L87.74-12.25Q87.74-17 88.74-19.78 89.74-22.55 91.79-23.75 93.84-24.95 96.94-24.95ZM105.39-35L109.64-35 109.64 0 106.34 0 105.84-4.25 105.39-4.6 105.39-21.3 105.69-22.05Q105.49-23.45 105.44-24.75 105.39-26.05 105.39-27.5L105.39-27.5 105.39-35ZM127.49-24.95L127.49-24.95Q132.99-24.95 135.47-22.95 137.94-20.95 137.94-17L137.94-17Q137.99-13.75 136.59-11.93 135.19-10.1 132.14-10.1L132.14-10.1 117.94-10.1 117.94-13.4 131.04-13.4Q132.69-13.4 133.19-14.53 133.69-15.65 133.69-17L133.69-17Q133.64-19.35 132.29-20.35 130.94-21.35 127.69-21.35L127.69-21.35Q125.04-21.35 123.52-20.58 121.99-19.8 121.37-17.88 120.74-15.95 120.74-12.5L120.74-12.5Q120.74-8.6 121.52-6.55 122.29-4.5 123.99-3.75 125.69-3 128.49-3L128.49-3Q130.44-3 132.77-3.18 135.09-3.35 136.94-3.6L136.94-3.6 137.39-0.75Q136.24-0.3 134.57 0 132.89 0.3 131.12 0.45 129.34 0.6 127.94 0.6L127.94 0.6Q123.74 0.6 121.19-0.68 118.64-1.95 117.47-4.78 116.29-7.6 116.29-12.25L116.29-12.25Q116.29-17.05 117.47-19.83 118.64-22.6 121.12-23.78 123.59-24.95 127.49-24.95ZM144.34-24.35L147.64-24.35 148.19-19.7 148.59-18.95 148.59 0 144.34 0 144.34-24.35ZM158.49-24.95L159.59-24.95 159.09-20.95 157.69-20.95Q155.54-20.95 153.39-20.08 151.24-19.2 148.14-17.6L148.14-17.6 147.79-20.25Q150.49-22.45 153.21-23.7 155.94-24.95 158.49-24.95L158.49-24.95ZM176.69-34.95L176.69-34.95Q180.84-34.95 183.26-34 185.69-33.05 186.74-30.73 187.79-28.4 187.79-24.15L187.79-24.15Q187.79-19.9 186.76-17.55 185.74-15.2 183.41-14.28 181.09-13.35 177.19-13.35L177.19-13.35Q175.09-13.35 173.16-13.45 171.24-13.55 169.64-13.73 168.04-13.9 166.91-14.1 165.79-14.3 165.34-14.45L165.34-14.45 165.49-17.15Q168.14-17.15 170.99-17.15 173.84-17.15 176.64-17.15L176.64-17.15Q179.14-17.2 180.61-17.78 182.09-18.35 182.71-19.88 183.34-21.4 183.34-24.15L183.34-24.15Q183.34-26.95 182.71-28.45 182.09-29.95 180.61-30.55 179.14-31.15 176.64-31.15L176.64-31.15Q172.54-31.15 169.56-31.1 166.59-31.05 165.54-30.95L165.54-30.95 164.84-34.5Q166.74-34.7 168.39-34.8 170.04-34.9 171.99-34.93 173.94-34.95 176.69-34.95ZM164.84-34.5L169.24-34.5 169.24 0 164.84 0 164.84-34.5ZM193.88-24.35L197.18-24.35 197.73-19.7 198.13-18.95 198.13 0 193.88 0 193.88-24.35ZM208.03-24.95L209.13-24.95 208.63-20.95 207.23-20.95Q205.08-20.95 202.93-20.08 200.78-19.2 197.68-17.6L197.68-17.6 197.33-20.25Q200.03-22.45 202.76-23.7 205.48-24.95 208.03-24.95L208.03-24.95ZM224.23-24.95L224.23-24.95Q228.43-24.95 230.96-23.7 233.48-22.45 234.58-19.63 235.68-16.8 235.68-12.15L235.68-12.15Q235.68-7.5 234.58-4.67 233.48-1.85 230.96-0.6 228.43 0.65 224.23 0.65L224.23 0.65Q220.08 0.65 217.56-0.6 215.03-1.85 213.91-4.67 212.78-7.5 212.78-12.15L212.78-12.15Q212.78-16.8 213.91-19.63 215.03-22.45 217.56-23.7 220.08-24.95 224.23-24.95ZM224.23-21.35L224.23-21.35Q221.58-21.35 220.06-20.53 218.53-19.7 217.88-17.7 217.23-15.7 217.23-12.15L217.23-12.15Q217.23-8.6 217.88-6.6 218.53-4.6 220.06-3.78 221.58-2.95 224.23-2.95L224.23-2.95Q226.88-2.95 228.43-3.78 229.98-4.6 230.63-6.6 231.28-8.6 231.28-12.15L231.28-12.15Q231.28-15.7 230.63-17.7 229.98-19.7 228.43-20.53 226.88-21.35 224.23-21.35ZM250.43-24.95L250.43-24.95Q252.03-24.95 253.83-24.85 255.63-24.75 257.4-24.6 259.18-24.45 260.68-24.2L260.68-24.2 260.33-21.1Q258.03-21.2 255.7-21.28 253.38-21.35 251.08-21.35L251.08-21.35Q248.83-21.4 247.53-21.25 246.23-21.1 245.65-20.45 245.08-19.8 245.08-18.25L245.08-18.25Q245.08-16.35 245.98-15.75 246.88-15.15 248.63-14.75L248.63-14.75 255.73-13.15Q258.63-12.45 260-11 261.38-9.55 261.38-6.45L261.38-6.45Q261.38-3.45 260.25-1.95 259.13-0.45 256.83 0.05 254.53 0.55 250.98 0.55L250.98 0.55Q249.68 0.55 247.1 0.45 244.53 0.35 241.43-0.15L241.43-0.15 241.73-3.25Q242.93-3.2 244.28-3.13 245.63-3.05 247.1-3.05 248.58-3.05 250.13-3.05L250.13-3.05Q252.88-3.05 254.43-3.3 255.98-3.55 256.63-4.28 257.28-5 257.28-6.45L257.28-6.45Q257.28-8.25 256.23-8.85 255.18-9.45 253.43-9.85L253.43-9.85 246.43-11.45Q244.43-11.95 243.23-12.78 242.03-13.6 241.48-14.93 240.93-16.25 240.93-18.25L240.93-18.25Q240.93-21.1 241.93-22.55 242.93-24 245.03-24.5 247.13-25 250.43-24.95Z" fill="#000000" data-fill-palette-color="primary"></path></g></svg></g></svg></g><g transform="matrix(1,0,0,1,163.310208,68.63172904070879)"><svg viewBox="0 0 232.209792 21.461637574711492" height="21.461637574711492" width="232.209792"><g transform="matrix(1,0,0,1,0,0)"><svg width="232.209792" viewBox="-0.05 -35.6 498.2 46.05" height="21.461637574711492" data-palette-color="#3855eb"><path d="M14 0L9.8 0 9.8-12.7-0.05-32.8 4.4-32.8 8.65-23.55Q9.45-21.75 10.2-20 10.95-18.25 11.8-16.4L11.8-16.4 12-16.4Q12.85-18.25 13.7-20 14.55-21.75 15.3-23.55L15.3-23.55 19.5-32.8 23.85-32.8 14-12.7 14 0ZM35.3 0.6L35.3 0.6Q33.05 0.6 31.02-0.25 29-1.1 27.45-2.73 25.9-4.35 24.97-6.73 24.05-9.1 24.05-12.1L24.05-12.1Q24.05-15.15 24.97-17.53 25.9-19.9 27.45-21.55 29-23.2 31.02-24.05 33.05-24.9 35.3-24.9L35.3-24.9Q37.55-24.9 39.57-24.05 41.6-23.2 43.15-21.55 44.7-19.9 45.62-17.53 46.55-15.15 46.55-12.1L46.55-12.1Q46.55-9.1 45.62-6.73 44.7-4.35 43.15-2.73 41.6-1.1 39.57-0.25 37.55 0.6 35.3 0.6ZM35.3-2.8L35.3-2.8Q36.85-2.8 38.15-3.48 39.45-4.15 40.37-5.38 41.3-6.6 41.8-8.3 42.3-10 42.3-12.1L42.3-12.1Q42.3-14.2 41.8-15.93 41.3-17.65 40.37-18.9 39.45-20.15 38.15-20.83 36.85-21.5 35.3-21.5L35.3-21.5Q33.75-21.5 32.45-20.83 31.15-20.15 30.22-18.9 29.3-17.65 28.8-15.93 28.3-14.2 28.3-12.1L28.3-12.1Q28.3-10 28.8-8.3 29.3-6.6 30.22-5.38 31.15-4.15 32.45-3.48 33.75-2.8 35.3-2.8ZM60.05 0.6L60.05 0.6Q56.14 0.6 54.37-1.8 52.59-4.2 52.59-8.9L52.59-8.9 52.59-24.3 56.74-24.3 56.74-9.45Q56.74-6 57.82-4.48 58.89-2.95 61.3-2.95L61.3-2.95Q63.2-2.95 64.64-3.93 66.09-4.9 67.84-7.05L67.84-7.05 67.84-24.3 71.94-24.3 71.94 0 68.55 0 68.19-3.8 68.05-3.8Q66.34-1.8 64.47-0.6 62.59 0.6 60.05 0.6ZM84.24 0L80.14 0 80.14-24.3 83.54-24.3 83.89-19.9 84.04-19.9Q85.29-22.2 87.07-23.55 88.84-24.9 90.94-24.9L90.94-24.9Q92.39-24.9 93.54-24.4L93.54-24.4 92.74-20.8Q92.14-21 91.64-21.1 91.14-21.2 90.39-21.2L90.39-21.2Q88.84-21.2 87.17-19.95 85.49-18.7 84.24-15.6L84.24-15.6 84.24 0ZM120.79 0.6L120.79 0.6Q117.54 0.6 114.81-0.55 112.09-1.7 110.14-3.88 108.19-6.05 107.09-9.22 105.99-12.4 105.99-16.4L105.99-16.4Q105.99-20.35 107.11-23.5 108.24-26.65 110.24-28.85 112.24-31.05 115.01-32.23 117.79-33.4 121.04-33.4L121.04-33.4Q122.74-33.4 124.16-33.05 125.59-32.7 126.76-32.13 127.94-31.55 128.86-30.83 129.79-30.1 130.49-29.35L130.49-29.35 128.19-26.65Q126.94-27.95 125.29-28.85 123.64-29.75 121.14-29.75L121.14-29.75Q118.64-29.75 116.64-28.83 114.64-27.9 113.24-26.18 111.84-24.45 111.06-22 110.29-19.55 110.29-16.5L110.29-16.5Q110.29-13.4 111.01-10.93 111.74-8.45 113.11-6.7 114.49-4.95 116.51-4 118.54-3.05 121.19-3.05L121.19-3.05Q122.94-3.05 124.51-3.58 126.09-4.1 127.09-5L127.09-5 127.09-13.55 120.14-13.55 120.14-17 130.89-17 130.89-3.2Q129.29-1.55 126.69-0.48 124.09 0.6 120.79 0.6ZM143.94 0.6L143.94 0.6Q140.89 0.6 138.86-1.2 136.84-3 136.84-6.3L136.84-6.3Q136.84-10.3 140.39-12.43 143.94-14.55 151.74-15.4L151.74-15.4Q151.74-16.55 151.51-17.65 151.29-18.75 150.74-19.6 150.19-20.45 149.21-20.98 148.24-21.5 146.74-21.5L146.74-21.5Q144.64-21.5 142.79-20.7 140.94-19.9 139.49-18.9L139.49-18.9 137.89-21.75Q139.59-22.85 142.04-23.88 144.49-24.9 147.44-24.9L147.44-24.9Q151.89-24.9 153.89-22.18 155.89-19.45 155.89-14.9L155.89-14.9 155.89 0 152.49 0 152.14-2.9 151.99-2.9Q150.24-1.45 148.24-0.43 146.24 0.6 143.94 0.6ZM145.14-2.7L145.14-2.7Q146.89-2.7 148.44-3.53 149.99-4.35 151.74-5.95L151.74-5.95 151.74-12.7Q148.69-12.3 146.61-11.75 144.54-11.2 143.26-10.45 141.99-9.7 141.41-8.72 140.84-7.75 140.84-6.6L140.84-6.6Q140.84-4.5 142.09-3.6 143.34-2.7 145.14-2.7ZM170.48 0.6L170.48 0.6Q168.53 0.6 167.21 0 165.88-0.6 165.06-1.65 164.23-2.7 163.88-4.2 163.53-5.7 163.53-7.5L163.53-7.5 163.53-20.95 159.93-20.95 159.93-24.05 163.73-24.3 164.23-31.1 167.68-31.1 167.68-24.3 174.23-24.3 174.23-20.95 167.68-20.95 167.68-7.45Q167.68-5.2 168.51-3.98 169.33-2.75 171.43-2.75L171.43-2.75Q172.08-2.75 172.83-2.95 173.58-3.15 174.18-3.4L174.18-3.4 174.98-0.3Q173.98 0.05 172.81 0.33 171.63 0.6 170.48 0.6ZM188.88 0.6L188.88 0.6Q186.43 0.6 184.31-0.28 182.18-1.15 180.61-2.78 179.03-4.4 178.13-6.75 177.23-9.1 177.23-12.1L177.23-12.1Q177.23-15.1 178.16-17.48 179.08-19.85 180.61-21.5 182.13-23.15 184.08-24.03 186.03-24.9 188.13-24.9L188.13-24.9Q190.43-24.9 192.26-24.1 194.08-23.3 195.31-21.8 196.53-20.3 197.18-18.2 197.83-16.1 197.83-13.5L197.83-13.5Q197.83-12.85 197.81-12.23 197.78-11.6 197.68-11.15L197.68-11.15 181.28-11.15Q181.53-7.25 183.71-4.98 185.88-2.7 189.38-2.7L189.38-2.7Q191.13-2.7 192.61-3.23 194.08-3.75 195.43-4.6L195.43-4.6 196.88-1.9Q195.28-0.9 193.33-0.15 191.38 0.6 188.88 0.6ZM181.23-14.1L181.23-14.1 194.23-14.1Q194.23-17.8 192.66-19.73 191.08-21.65 188.23-21.65L188.23-21.65Q186.93-21.65 185.76-21.15 184.58-20.65 183.63-19.68 182.68-18.7 182.06-17.3 181.43-15.9 181.23-14.1ZM212.73 0L207.93 0 201.18-24.3 205.38-24.3 208.98-10.25Q209.38-8.5 209.73-6.85 210.08-5.2 210.43-3.5L210.43-3.5 210.63-3.5Q211.03-5.2 211.43-6.88 211.83-8.55 212.28-10.25L212.28-10.25 216.03-24.3 220.03-24.3 223.83-10.25Q224.28-8.5 224.7-6.85 225.13-5.2 225.53-3.5L225.53-3.5 225.73-3.5Q226.13-5.2 226.48-6.85 226.83-8.5 227.23-10.25L227.23-10.25 230.78-24.3 234.68-24.3 228.18 0 223.18 0 219.68-13.05Q219.23-14.8 218.85-16.5 218.48-18.2 218.03-20.05L218.03-20.05 217.83-20.05Q217.43-18.2 217.03-16.48 216.63-14.75 216.13-13L216.13-13 212.73 0ZM245.08 0.6L245.08 0.6Q242.03 0.6 240-1.2 237.98-3 237.98-6.3L237.98-6.3Q237.98-10.3 241.53-12.43 245.08-14.55 252.88-15.4L252.88-15.4Q252.88-16.55 252.65-17.65 252.43-18.75 251.88-19.6 251.33-20.45 250.35-20.98 249.38-21.5 247.88-21.5L247.88-21.5Q245.78-21.5 243.93-20.7 242.08-19.9 240.63-18.9L240.63-18.9 239.03-21.75Q240.73-22.85 243.18-23.88 245.63-24.9 248.58-24.9L248.58-24.9Q253.03-24.9 255.03-22.18 257.03-19.45 257.03-14.9L257.03-14.9 257.03 0 253.63 0 253.28-2.9 253.13-2.9Q251.38-1.45 249.38-0.43 247.38 0.6 245.08 0.6ZM246.28-2.7L246.28-2.7Q248.03-2.7 249.58-3.53 251.13-4.35 252.88-5.95L252.88-5.95 252.88-12.7Q249.83-12.3 247.75-11.75 245.68-11.2 244.4-10.45 243.13-9.7 242.55-8.72 241.98-7.75 241.98-6.6L241.98-6.6Q241.98-4.5 243.23-3.6 244.48-2.7 246.28-2.7ZM265.07 10.45L265.07 10.45Q264.22 10.45 263.52 10.33 262.82 10.2 262.22 9.95L262.22 9.95 263.02 6.7Q263.42 6.8 263.92 6.93 264.42 7.05 264.87 7.05L264.87 7.05Q266.97 7.05 268.3 5.58 269.62 4.1 270.37 1.85L270.37 1.85 270.92 0.05 261.17-24.3 265.42-24.3 270.37-10.85Q270.92-9.25 271.55-7.48 272.17-5.7 272.72-4L272.72-4 272.92-4Q273.47-5.65 273.97-7.45 274.47-9.25 274.97-10.85L274.97-10.85 279.32-24.3 283.32-24.3 274.17 2Q273.52 3.8 272.72 5.35 271.92 6.9 270.82 8.03 269.72 9.15 268.32 9.8 266.92 10.45 265.07 10.45ZM305.67 0.6L305.67 0.6Q303.72 0.6 302.39 0 301.07-0.6 300.24-1.65 299.42-2.7 299.07-4.2 298.72-5.7 298.72-7.5L298.72-7.5 298.72-20.95 295.12-20.95 295.12-24.05 298.92-24.3 299.42-31.1 302.87-31.1 302.87-24.3 309.42-24.3 309.42-20.95 302.87-20.95 302.87-7.45Q302.87-5.2 303.69-3.98 304.52-2.75 306.62-2.75L306.62-2.75Q307.27-2.75 308.02-2.95 308.77-3.15 309.37-3.4L309.37-3.4 310.17-0.3Q309.17 0.05 307.99 0.33 306.82 0.6 305.67 0.6ZM323.67 0.6L323.67 0.6Q321.42 0.6 319.39-0.25 317.37-1.1 315.82-2.73 314.27-4.35 313.34-6.73 312.42-9.1 312.42-12.1L312.42-12.1Q312.42-15.15 313.34-17.53 314.27-19.9 315.82-21.55 317.37-23.2 319.39-24.05 321.42-24.9 323.67-24.9L323.67-24.9Q325.92-24.9 327.94-24.05 329.97-23.2 331.52-21.55 333.07-19.9 333.99-17.53 334.92-15.15 334.92-12.1L334.92-12.1Q334.92-9.1 333.99-6.73 333.07-4.35 331.52-2.73 329.97-1.1 327.94-0.25 325.92 0.6 323.67 0.6ZM323.67-2.8L323.67-2.8Q325.22-2.8 326.52-3.48 327.82-4.15 328.74-5.38 329.67-6.6 330.17-8.3 330.67-10 330.67-12.1L330.67-12.1Q330.67-14.2 330.17-15.93 329.67-17.65 328.74-18.9 327.82-20.15 326.52-20.83 325.22-21.5 323.67-21.5L323.67-21.5Q322.12-21.5 320.82-20.83 319.52-20.15 318.59-18.9 317.67-17.65 317.17-15.93 316.67-14.2 316.67-12.1L316.67-12.1Q316.67-10 317.17-8.3 317.67-6.6 318.59-5.38 319.52-4.15 320.82-3.48 322.12-2.8 323.67-2.8ZM364.61 0.6L364.61 0.6Q361.36 0.6 358.64-0.55 355.91-1.7 353.96-3.88 352.01-6.05 350.91-9.22 349.81-12.4 349.81-16.4L349.81-16.4Q349.81-20.35 350.94-23.5 352.06-26.65 354.06-28.85 356.06-31.05 358.84-32.23 361.61-33.4 364.86-33.4L364.86-33.4Q366.56-33.4 367.99-33.05 369.41-32.7 370.59-32.13 371.76-31.55 372.69-30.83 373.61-30.1 374.31-29.35L374.31-29.35 372.01-26.65Q370.76-27.95 369.11-28.85 367.46-29.75 364.96-29.75L364.96-29.75Q362.46-29.75 360.46-28.83 358.46-27.9 357.06-26.18 355.66-24.45 354.89-22 354.11-19.55 354.11-16.5L354.11-16.5Q354.11-13.4 354.84-10.93 355.56-8.45 356.94-6.7 358.31-4.95 360.34-4 362.36-3.05 365.01-3.05L365.01-3.05Q366.76-3.05 368.34-3.58 369.91-4.1 370.91-5L370.91-5 370.91-13.55 363.96-13.55 363.96-17 374.71-17 374.71-3.2Q373.11-1.55 370.51-0.48 367.91 0.6 364.61 0.6ZM386.26 0L382.16 0 382.16-24.3 385.56-24.3 385.91-19.9 386.06-19.9Q387.31-22.2 389.08-23.55 390.86-24.9 392.96-24.9L392.96-24.9Q394.41-24.9 395.56-24.4L395.56-24.4 394.76-20.8Q394.16-21 393.66-21.1 393.16-21.2 392.41-21.2L392.41-21.2Q390.86-21.2 389.18-19.95 387.51-18.7 386.26-15.6L386.26-15.6 386.26 0ZM408.46 0.6L408.46 0.6Q406.21 0.6 404.18-0.25 402.16-1.1 400.61-2.73 399.06-4.35 398.13-6.73 397.21-9.1 397.21-12.1L397.21-12.1Q397.21-15.15 398.13-17.53 399.06-19.9 400.61-21.55 402.16-23.2 404.18-24.05 406.21-24.9 408.46-24.9L408.46-24.9Q410.71-24.9 412.73-24.05 414.76-23.2 416.31-21.55 417.86-19.9 418.78-17.53 419.71-15.15 419.71-12.1L419.71-12.1Q419.71-9.1 418.78-6.73 417.86-4.35 416.31-2.73 414.76-1.1 412.73-0.25 410.71 0.6 408.46 0.6ZM408.46-2.8L408.46-2.8Q410.01-2.8 411.31-3.48 412.61-4.15 413.53-5.38 414.46-6.6 414.96-8.3 415.46-10 415.46-12.1L415.46-12.1Q415.46-14.2 414.96-15.93 414.46-17.65 413.53-18.9 412.61-20.15 411.31-20.83 410.01-21.5 408.46-21.5L408.46-21.5Q406.91-21.5 405.61-20.83 404.31-20.15 403.38-18.9 402.46-17.65 401.96-15.93 401.46-14.2 401.46-12.1L401.46-12.1Q401.46-10 401.96-8.3 402.46-6.6 403.38-5.38 404.31-4.15 405.61-3.48 406.91-2.8 408.46-2.8ZM434.55 0L429.75 0 423-24.3 427.2-24.3 430.8-10.25Q431.2-8.5 431.55-6.85 431.9-5.2 432.25-3.5L432.25-3.5 432.45-3.5Q432.85-5.2 433.25-6.88 433.65-8.55 434.1-10.25L434.1-10.25 437.85-24.3 441.85-24.3 445.65-10.25Q446.1-8.5 446.53-6.85 446.95-5.2 447.35-3.5L447.35-3.5 447.55-3.5Q447.95-5.2 448.3-6.85 448.65-8.5 449.05-10.25L449.05-10.25 452.6-24.3 456.5-24.3 450 0 445 0 441.5-13.05Q441.05-14.8 440.68-16.5 440.3-18.2 439.85-20.05L439.85-20.05 439.65-20.05Q439.25-18.2 438.85-16.48 438.45-14.75 437.95-13L437.95-13 434.55 0ZM469.45 0.6L469.45 0.6Q467.5 0.6 466.18 0 464.85-0.6 464.03-1.65 463.2-2.7 462.85-4.2 462.5-5.7 462.5-7.5L462.5-7.5 462.5-20.95 458.9-20.95 458.9-24.05 462.7-24.3 463.2-31.1 466.65-31.1 466.65-24.3 473.2-24.3 473.2-20.95 466.65-20.95 466.65-7.45Q466.65-5.2 467.48-3.98 468.3-2.75 470.4-2.75L470.4-2.75Q471.05-2.75 471.8-2.95 472.55-3.15 473.15-3.4L473.15-3.4 473.95-0.3Q472.95 0.05 471.78 0.33 470.6 0.6 469.45 0.6ZM482.8 0L478.7 0 478.7-35.6 482.8-35.6 482.8-25.9 482.65-20.9Q484.4-22.55 486.3-23.73 488.2-24.9 490.75-24.9L490.75-24.9Q494.6-24.9 496.37-22.5 498.15-20.1 498.15-15.4L498.15-15.4 498.15 0 494.05 0 494.05-14.85Q494.05-18.3 492.95-19.83 491.85-21.35 489.45-21.35L489.45-21.35Q487.55-21.35 486.1-20.4 484.65-19.45 482.8-17.6L482.8-17.6 482.8 0Z" opacity="1" transform="matrix(1,0,0,1,0,0)" fill="#000000" class="slogan-text-1" data-fill-palette-color="secondary" id="text-1"></path></svg></g></svg></g></svg></g></svg></g><g transform="matrix(1,0,0,1,426.7429088525821,0.44866496574478987)"><svg viewBox="0 0 103.77042551703379 89.64650351700779" height="89.64650351700779" width="103.77042551703379"><g><svg xmlns="http://www.w3.org/2000/svg" xmlns:xlink="http://www.w3.org/1999/xlink" version="1.1" x="0" y="0" viewBox="1.7 8.24797408225478 96.60000000000001 83.45202591774522" enable-background="new 0 0 100 100" xml:space="preserve" height="89.64650351700779" width="103.77042551703379" class="icon-icon-0" data-fill-palette-color="accent" id="icon-0"><g fill="#3855eb" data-fill-palette-color="accent"><path d="M22.3 64.5c3.4-4.8-0.3-5-0.9-5h0 0c-0.6 0-4.3 0.2-0.9 5l-1.7 7.7H1.7v-5.6c0-1.2 0.5-2.3 1.4-3 5-4.1 10.4-6.9 11.6-7.4 0.1-0.1 0.2-0.2 0.2-0.3v-2.9c-0.8-1.3-1.1-2.7-1.3-3.9-0.4 0-1-0.7-1.6-2.9-0.9-3 0.1-3.5 0.8-3.4-0.6-1.6-0.6-3.1-0.2-4.6 0.4-1.7 1.3-3.1 2.3-4.1 0.7-0.7 1.4-1.3 2.2-1.8 0.6-0.4 1.3-0.8 2.1-1.1l0 0c0.6-0.2 1.2-0.3 1.9-0.4 2.1-0.2 3.7 0.3 4.8 1 1.7 0.9 2.3 2.2 2.3 2.2s4.3 0.3 2.4 9.3c0.6 0.2 1 1 0.3 3.3-0.8 2.9-1.6 3.1-2 2.8-0.2 1-0.5 2.1-1 3.1 0 1.4 0 2.8 0 3.3 0 0.1 0.1 0.3 0.2 0.3 1.1 0.5 6.5 3.3 11.6 7.4 0.9 0.7 1.4 1.9 1.4 3v5.6H24L22.3 64.5zM98.3 38c0-1-0.4-1.9-1.2-2.5-4.2-3.4-8.6-5.7-9.6-6.1-0.1 0-0.2-0.2-0.2-0.3 0-0.4 0-1.6 0-2.8 0.4-0.9 0.7-1.8 0.8-2.6 0.4 0.3 1 0.1 1.7-2.3 0.6-2 0.2-2.6-0.3-2.8 1.6-7.4-2-7.7-2-7.7s-0.5-1-1.9-1.8c-0.9-0.6-2.3-1-4-0.8-0.6 0-1.1 0.1-1.6 0.3l0 0c-0.6 0.2-1.2 0.5-1.7 0.9-0.6 0.4-1.3 0.9-1.8 1.5-0.9 0.9-1.6 2-1.9 3.4-0.3 1.2-0.3 2.5 0.2 3.8-0.6-0.1-1.4 0.3-0.7 2.8 0.5 1.8 1 2.3 1.4 2.4 0.2 1 0.5 2.2 1.1 3.3v2.4c0 0.1-0.1 0.2-0.2 0.3-0.9 0.4-5.4 2.7-9.6 6.1-0.7 0.6-1.2 1.5-1.2 2.5v4.6h14.2l1.4-6.4C78.4 32.2 81.4 32 82 32h0 0c0.5 0 3.6 0.2 0.7 4.1l1.4 6.4h14.2V38zM98.3 87.1c0-1-0.4-1.9-1.2-2.5-4.2-3.4-8.6-5.7-9.6-6.1-0.1 0-0.2-0.2-0.2-0.3 0-0.4 0-1.6 0-2.8 0.4-0.9 0.7-1.8 0.8-2.6 0.4 0.3 1 0.1 1.7-2.3 0.6-2 0.2-2.6-0.3-2.8 1.6-7.4-2-7.7-2-7.7s-0.5-1-1.9-1.8c-0.9-0.6-2.3-1-4-0.8-0.6 0-1.1 0.1-1.6 0.3l0 0c-0.6 0.2-1.2 0.5-1.7 0.9-0.6 0.4-1.3 0.9-1.8 1.5-0.9 0.9-1.6 2-1.9 3.4-0.3 1.2-0.3 2.5 0.2 3.8-0.6-0.1-1.4 0.3-0.7 2.8 0.5 1.8 1 2.3 1.4 2.4 0.2 1 0.5 2.2 1.1 3.3v2.4c0 0.1-0.1 0.2-0.2 0.3-0.9 0.4-5.4 2.7-9.6 6.1-0.7 0.6-1.2 1.5-1.2 2.5v4.6h14.2l1.4-6.4c-2.8-3.9 0.2-4.1 0.7-4.1h0 0c0.5 0 3.6 0.2 0.7 4.1l1.4 6.4h14.2V87.1zM43.2 53.5h6.6v23.2c0 1.1 0.9 2.1 2.1 2.1h8.6c1.1 0 2.1-0.9 2.1-2.1 0-1.1-0.9-2.1-2.1-2.1h-6.6V28.4h6.6c1.1 0 2.1-0.9 2.1-2.1s-0.9-2.1-2.1-2.1h-8.6c-1.1 0-2.1 0.9-2.1 2.1v23.1h-6.6c-1.1 0-2.1 0.9-2.1 2.1S42.1 53.5 43.2 53.5z" fill="#000000" data-fill-palette-color="accent"></path></g></svg></g></svg></g></svg></g><defs></defs></svg><rect width="395.52" height="67.50423539891469" fill="none" stroke="none" visibility="hidden"></rect></g></svg></g></svg>